<svg xmlns="http://www.w3.org/2000/svg" xmlns:xlink="http://www.w3.org/1999/xlink" x="0" y="0" width="661.3333740234375" height="301.3333435058594" style="
        width:661.3333740234375px;
        height:301.3333435058594px;
        background: #FFF;
        fill: none;
">
        
        
        <svg xmlns="http://www.w3.org/2000/svg" class="role-diagram-draw-area"><g class="shapes-region" style="stroke: black; fill: none;"><g class="composite-shape axis2d" style="stroke-width: 1; stroke: rgb(0, 0, 0);"><path class="real" d=" M111.27,190.86 L566.51,190.86 M158.23,30.14 L158.23,298"/><path d=" M559.51,185.86 L566.51,190.86 L559.51,195.86"/><path d=" M153.23,37.14 L158.23,30.14 L163.23,37.14"/></g><g class="arrow-line"><path class="connection real" stroke-dasharray="" d="  M158.94,228.33 L325.23,229.13" style="stroke: rgb(0, 0, 0); stroke-width: 1; fill: none; fill-opacity: 1;"/></g><g class="arrow-line"><path class="connection real" stroke-dasharray="" d="  M555.46,125.73 L325.23,229.13" style="stroke: rgb(0, 0, 0); stroke-width: 1; fill: none; fill-opacity: 1;"/></g><g class="arrow-line"><path class="connection real" stroke-dasharray="6 6" d="  M324.06,190.95 L325.23,229.13" style="stroke: rgb(0, 0, 0); stroke-width: 1; fill: none; fill-opacity: 1;"/></g><g class="arrow-line"><path class="connection real" stroke-dasharray="" d="  M324.06,190.95 L326.13,167.69" style="stroke: rgb(0, 0, 0); stroke-width: 1; fill: none; fill-opacity: 1;"/><g stroke="none" fill="#000" transform="matrix(-0.08819890741686777,0.9961028826032333,-0.9961028826032333,-0.08819890741686777,326.3898669234662,164.70091216213203)" style="stroke: none; fill: rgb(0, 0, 0); stroke-width: 1;"><path d=" M8.93,-4.29 L0,0 L8.93,4.29 Z"/></g><g stroke="#000" fill="#000" transform="matrix(0.0881989074168679,-0.9961028826032333,0.9961028826032333,0.0881989074168679,324.06423204442785,190.94976128176927)" style="stroke: rgb(0, 0, 0); fill: rgb(0, 0, 0); stroke-width: 1;"><circle cx="0" cy="0" r="3.35"/></g></g><g class="arrow-line"><path class="connection real" stroke-dasharray="" d="  M412.44,190.95 L542.25,247.81" style="stroke: rgb(0, 0, 0); stroke-width: 1; fill: none; fill-opacity: 1;"/><g stroke="none" fill="#000" transform="matrix(-0.9160130102427778,-0.4011485573524659,0.4011485573524659,-0.9160130102427778,544.9995455530457,249.01539721308814)" style="stroke: none; fill: rgb(0, 0, 0); stroke-width: 1;"><path d=" M8.93,-4.29 L0,0 L8.93,4.29 Z"/></g><g stroke="#000" fill="#000" transform="matrix(0.9160130102427778,0.401148557352466,-0.401148557352466,0.9160130102427778,412.438357447875,190.9497612817693)" style="stroke: rgb(0, 0, 0); fill: rgb(0, 0, 0); stroke-width: 1;"><circle cx="0" cy="0" r="3.35"/></g></g><g/></g><g/><g/><g/></svg>
        <svg xmlns="http://www.w3.org/2000/svg" xmlns:xlink="http://www.w3.org/1999/xlink" width="660" height="300" style="width:660px;height:300px;font-family:Asana-Math, Asana;background:#FFF;"><g><g><g><g transform="matrix(1,0,0,1,554.2709045410156,219.67709350585938)"><path transform="matrix(0.017,0,0,-0.017,0,0)" d="M108 471C108 386 146 339 230 319L325 296C379 283 406 248 406 191C406 96 335 30 232 30C178 30 140 42 96 73L96 172L66 172C60 117 53 72 42 20C91 -5 144 -18 197 -18C352 -18 485 99 485 234C485 313 442 355 341 377L276 391C210 405 180 442 180 508C180 595 247 658 339 658C388 658 421 645 451 613L451 537L481 537C485 591 492 629 506 672C461 696 421 706 374 706C250 706 108 614 108 471Z" stroke="rgb(0,0,0)" stroke-opacity="1" stroke-width="8" fill="rgb(0,0,0)" fill-opacity="1"></path></g></g><g><g><g><g><g transform="matrix(1,0,0,1,564.2084045410156,223.34793701171876)"><path transform="matrix(0.0119,0,0,-0.0119,0,0)" d="M390 646L463 646C541 646 577 641 580 629C583 621 585 602 584 592L580 528L608 528L635 692L544 691C456 690 388 689 353 689C316 689 252 690 166 691L71 692L53 528L82 528L97 588C102 610 109 626 115 633C121 640 159 646 196 646L308 646L222 125C206 34 204 31 164 28L113 25L109 -3L166 -2C206 -1 235 0 251 0C270 0 301 -1 340 -2L384 -3L387 25L328 28C302 29 292 37 292 58C292 67 293 74 296 93Z" stroke="rgb(0,0,0)" stroke-opacity="1" stroke-width="8" fill="rgb(0,0,0)" fill-opacity="1"></path></g></g></g></g></g></g></g><g><g><g><g transform="matrix(1,0,0,1,140.86459350585938,19.4375)"><path transform="matrix(0.017,0,0,-0.017,0,0)" d="M105 664L160 662C184 661 195 653 195 635L112 125C95 34 94 31 54 28L13 25L9 -3L51 -2C92 -1 123 0 141 0C158 0 187 -1 227 -2L280 -3L283 25L218 28C192 29 182 37 182 58C182 67 183 74 186 93L284 648C320 654 336 656 355 656C457 656 506 612 506 519C506 411 434 323 346 323C324 323 304 328 267 342L269 311C306 293 326 288 355 288C484 288 594 405 594 541C594 642 531 695 412 692L108 692ZM1192 103L847 692L685 692L680 664L715 662C760 660 794 615 795 606L702 102C690 40 684 32 648 28L617 25L612 -3L723 0C735 0 736 0 833 -3L838 25L796 28C756 31 747 39 747 72C747 80 748 91 750 102L830 566L1168 -11L1218 -11L1312 542C1333 655 1335 659 1372 662L1409 664L1412 691L1199 692L1194 664L1241 662C1267 661 1277 654 1277 638C1277 631 1194 116 1192 103ZM1736 664L1739 692L1625 689C1609 689 1591 689 1548 690L1484 692L1481 664L1528 662C1552 661 1563 653 1563 635L1468 55C1464 37 1452 30 1408 23L1403 -3L1444 -2C1475 -1 1537 0 1557 0C1557 0 1854 -1 1854 -1C1854 -1 1887 0 1887 0C1886 25 1897 103 1910 165L1879 165L1862 103C1853 71 1844 54 1835 49C1822 44 1758 39 1691 39C1642 39 1615 40 1549 46C1552 64 1643 605 1643 613C1650 651 1657 658 1694 661Z" stroke="rgb(0,0,0)" stroke-opacity="1" stroke-width="8" fill="rgb(0,0,0)" fill-opacity="1"></path></g></g></g></g><g><g><g><g transform="matrix(1,0,0,1,274.5416564941406,156.34168701171876)"><path transform="matrix(0.015300000000000001,0,0,-0.015300000000000001,0,0)" d="M465 666C410 699 355 716 282 716C143 716 56 618 56 519C56 476 70 434 110 392C152 347 196 335 255 321C340 300 350 297 378 272C398 255 420 222 420 179C420 113 365 47 274 47C233 47 143 57 59 128L44 47C132 -8 212 -22 275 -22C407 -22 499 79 499 189C499 254 468 302 446 326C399 376 366 385 274 408C256 412 135 429 135 531C135 590 189 650 281 650C365 650 413 617 450 586ZM729 386L870 386L870 444L729 444L729 571L660 571L660 444L573 444L573 386L657 386L657 119C657 59 671 -11 740 -11C810 -11 861 14 886 27L870 86C844 65 812 53 780 53C743 53 729 83 729 136ZM1071 214C1071 314 1143 386 1241 388L1241 455C1152 454 1097 405 1066 359L1066 450L996 450L996 0L1071 0ZM1417 680L1328 680L1328 591L1417 591ZM1410 444L1335 444L1335 0L1410 0ZM1772 272L1940 444L1850 444L1647 236L1647 694L1575 694L1575 0L1644 0L1644 141L1724 224L1880 0L1962 0ZM2392 219C2392 421 2285 461 2214 461C2103 461 2013 355 2013 226C2013 94 2109 -11 2229 -11C2292 -11 2349 13 2388 41L2382 106C2319 54 2253 50 2230 50C2150 50 2086 121 2083 219ZM2088 274C2104 350 2157 400 2214 400C2266 400 2322 366 2335 274ZM3022 289C3146 289 3252 380 3252 492C3252 599 3153 694 3015 694L2766 694L2766 0L2855 0L2855 289ZM2993 638C3103 638 3171 577 3171 492C3171 413 3108 347 2993 347L2852 347L2852 638ZM3464 214C3464 314 3536 386 3634 388L3634 455C3545 454 3490 405 3459 359L3459 450L3389 450L3389 0L3464 0ZM3810 680L3721 680L3721 591L3810 591ZM3803 444L3728 444L3728 0L3803 0ZM4294 418C4235 452 4201 461 4140 461C4001 461 3920 340 3920 222C3920 98 4011 -11 4136 -11C4190 -11 4245 3 4299 40L4293 107C4242 67 4188 53 4137 53C4054 53 3998 125 3998 223C3998 301 4035 397 4141 397C4193 397 4227 389 4282 353ZM4741 219C4741 421 4634 461 4563 461C4452 461 4362 355 4362 226C4362 94 4458 -11 4578 -11C4641 -11 4698 13 4737 41L4731 106C4668 54 4602 50 4579 50C4499 50 4435 121 4432 219ZM4437 274C4453 350 4506 400 4563 400C4615 400 4671 366 4684 274Z" stroke="rgb(0,0,0)" stroke-opacity="1" stroke-width="8" fill="rgb(0,0,0)" fill-opacity="1"></path></g></g><g><g transform="matrix(1,0,0,1,347.5312805175781,156.34168701171876)"><path transform="matrix(0.015300000000000001,0,0,-0.015300000000000001,0,0)" d="" stroke="rgb(0,0,0)" stroke-opacity="1" stroke-width="8" fill="rgb(0,0,0)" fill-opacity="1"></path></g></g><g><g transform="matrix(1,0,0,1,355.9270935058594,156.34168701171876)"><path transform="matrix(0.015300000000000001,0,0,-0.015300000000000001,0,0)" d="M604 347L604 406L65 406L65 347ZM604 134L604 193L65 193L65 134Z" stroke="rgb(0,0,0)" stroke-opacity="1" stroke-width="8" fill="rgb(0,0,0)" fill-opacity="1"></path></g></g><g><g transform="matrix(1,0,0,1,370.7395935058594,156.34168701171876)"><path transform="matrix(0.015300000000000001,0,0,-0.015300000000000001,0,0)" d="M620 664L623 692L599 692L509 689C493 689 475 689 432 690L368 692L365 664L412 662C436 661 447 653 447 635C447 621 444 592 438 559L365 125C348 33 347 32 307 28L266 25L262 -3L304 -2C352 -1 375 0 394 0L491 -3L517 -3L520 25L471 28C444 30 435 37 435 57C435 63 436 74 437 78L480 340C630 169 653 140 758 -3L827 0C863 -1 869 -2 895 -3L895 27L875 27C852 27 832 39 811 65L565 367L857 640C873 655 894 665 911 665L932 665L932 692L909 691C888 690 872 689 864 689C854 689 838 690 817 691L797 692L797 663C797 655 787 642 759 614C715 569 546 403 482 353L527 613C534 651 541 658 578 661Z" stroke="rgb(0,0,0)" stroke-opacity="1" stroke-width="8" fill="rgb(0,0,0)" fill-opacity="1"></path></g></g></g></g><g><g><g><g transform="matrix(1,0,0,1,468.2916564941406,264.6125)"><path transform="matrix(0.015300000000000001,0,0,-0.015300000000000001,0,0)" d="M97 694L97 0L361 0C505 0 610 90 610 188C610 275 523 346 417 363C508 386 583 444 583 520C583 612 476 694 334 694ZM180 391L180 638L306 638C417 638 505 585 505 519C505 459 434 391 296 391ZM180 56L180 330L325 330C431 330 529 269 529 189C529 114 441 56 333 56ZM822 214C822 314 894 386 992 388L992 455C903 454 848 405 817 359L817 450L747 450L747 0L822 0ZM1419 219C1419 421 1312 461 1241 461C1130 461 1040 355 1040 226C1040 94 1136 -11 1256 -11C1319 -11 1376 13 1415 41L1409 106C1346 54 1280 50 1257 50C1177 50 1113 121 1110 219ZM1115 274C1131 350 1184 400 1241 400C1293 400 1349 366 1362 274ZM1847 289C1847 391 1774 461 1682 461C1617 461 1572 445 1525 418L1531 352C1583 389 1633 402 1682 402C1729 402 1769 362 1769 288L1769 245C1619 243 1492 201 1492 113C1492 70 1519 -11 1606 -11C1620 -11 1714 -9 1772 36L1772 0L1847 0ZM1769 132C1769 113 1769 88 1735 69C1706 51 1668 50 1657 50C1609 50 1564 73 1564 115C1564 185 1726 192 1769 194ZM2208 272L2376 444L2286 444L2083 236L2083 694L2011 694L2011 0L2080 0L2080 141L2160 224L2316 0L2398 0ZM2828 219C2828 421 2721 461 2650 461C2539 461 2449 355 2449 226C2449 94 2545 -11 2665 -11C2728 -11 2785 13 2824 41L2818 106C2755 54 2689 50 2666 50C2586 50 2522 121 2519 219ZM2524 274C2540 350 2593 400 2650 400C2702 400 2758 366 2771 274ZM3303 444L3228 444C3176 299 3085 47 3089 53L3088 53L2949 444L2871 444L3043 0L3131 0ZM3731 219C3731 421 3624 461 3553 461C3442 461 3352 355 3352 226C3352 94 3448 -11 3568 -11C3631 -11 3688 13 3727 41L3721 106C3658 54 3592 50 3569 50C3489 50 3425 121 3422 219ZM3427 274C3443 350 3496 400 3553 400C3605 400 3661 366 3674 274ZM4195 298C4195 364 4180 455 4058 455C3968 455 3919 387 3913 379L3913 450L3841 450L3841 0L3919 0L3919 245C3919 311 3944 394 4020 394C4116 394 4117 323 4117 291L4117 0L4195 0Z" stroke="rgb(0,0,0)" stroke-opacity="1" stroke-width="8" fill="rgb(0,0,0)" fill-opacity="1"></path></g></g><g><g transform="matrix(1,0,0,1,533.7083435058594,264.6125)"><path transform="matrix(0.015300000000000001,0,0,-0.015300000000000001,0,0)" d="M357 471C357 386 395 339 479 319L574 296C628 283 655 248 655 191C655 96 584 30 481 30C427 30 389 42 345 73L345 172L315 172C309 117 302 72 291 20C340 -5 393 -18 446 -18C601 -18 734 99 734 234C734 313 691 355 590 377L525 391C459 405 429 442 429 508C429 595 496 658 588 658C637 658 670 645 700 613L700 537L730 537C734 591 741 629 755 672C710 696 670 706 623 706C499 706 357 614 357 471Z" stroke="rgb(0,0,0)" stroke-opacity="1" stroke-width="8" fill="rgb(0,0,0)" fill-opacity="1"></path></g></g><g><g><g><g><g transform="matrix(1,0,0,1,546.4687805175781,267.98084350585935)"><path transform="matrix(0.01071,0,0,-0.01071,0,0)" d="M390 646L463 646C541 646 577 641 580 629C583 621 585 602 584 592L580 528L608 528L635 692L544 691C456 690 388 689 353 689C316 689 252 690 166 691L71 692L53 528L82 528L97 588C102 610 109 626 115 633C121 640 159 646 196 646L308 646L222 125C206 34 204 31 164 28L113 25L109 -3L166 -2C206 -1 235 0 251 0C270 0 301 -1 340 -2L384 -3L387 25L328 28C302 29 292 37 292 58C292 67 293 74 296 93Z" stroke="rgb(0,0,0)" stroke-opacity="1" stroke-width="8" fill="rgb(0,0,0)" fill-opacity="1"></path></g></g></g></g></g><g><g transform="matrix(1,0,0,1,556.9687805175781,264.6125)"><path transform="matrix(0.015300000000000001,0,0,-0.015300000000000001,0,0)" d="M555 243L555 299L51 299L51 243Z" stroke="rgb(0,0,0)" stroke-opacity="1" stroke-width="8" fill="rgb(0,0,0)" fill-opacity="1"></path></g></g><g><g transform="matrix(1,0,0,1,569.2812805175781,264.6125)"><path transform="matrix(0.015300000000000001,0,0,-0.015300000000000001,0,0)" d="M371 664L374 692L350 692L260 689C244 689 226 689 183 690L119 692L116 664L163 662C187 661 198 653 198 635C198 621 195 592 189 559L116 125C99 33 98 32 58 28L17 25L13 -3L55 -2C103 -1 126 0 145 0L242 -3L268 -3L271 25L222 28C195 30 186 37 186 57C186 63 187 74 188 78L231 340C381 169 404 140 509 -3L578 0C614 -1 620 -2 646 -3L646 27L626 27C603 27 583 39 562 65L316 367L608 640C624 655 645 665 662 665L683 665L683 692L660 691C639 690 623 689 615 689C605 689 589 690 568 691L548 692L548 663C548 655 538 642 510 614C466 569 297 403 233 353L278 613C285 651 292 658 329 661Z" stroke="rgb(0,0,0)" stroke-opacity="1" stroke-width="8" fill="rgb(0,0,0)" fill-opacity="1"></path></g></g><g><g transform="matrix(1,0,0,1,582.5312805175781,264.6125)"><path transform="matrix(0.015300000000000001,0,0,-0.015300000000000001,0,0)" d="M555 243L555 299L51 299L51 243Z" stroke="rgb(0,0,0)" stroke-opacity="1" stroke-width="8" fill="rgb(0,0,0)" fill-opacity="1"></path></g></g><g><g transform="matrix(1,0,0,1,594.8437805175781,264.6125)"><path transform="matrix(0.015300000000000001,0,0,-0.015300000000000001,0,0)" d="M176 -11C232 -11 347 62 390 125C431 186 465 296 465 371C465 438 442 482 406 482C364 482 311 456 259 409C218 374 198 348 162 289L186 408C189 425 191 440 191 452C191 471 183 482 169 482C148 482 110 461 36 408L8 388L15 368L47 389C75 407 86 412 95 412C105 412 112 403 112 389C112 381 110 361 108 351L50 8C40 -52 21 -143 1 -233L-7 -270L0 -276C21 -269 41 -264 73 -259L115 3C136 -4 158 -11 176 -11ZM143 165C165 293 272 424 355 424C381 424 393 402 393 356C393 275 353 156 300 80C280 51 248 36 207 36C176 36 151 43 125 59Z" stroke="rgb(0,0,0)" stroke-opacity="1" stroke-width="8" fill="rgb(0,0,0)" fill-opacity="1"></path></g></g><g><g transform="matrix(1,0,0,1,607.0625305175781,264.6125)"><path transform="matrix(0.015300000000000001,0,0,-0.015300000000000001,0,0)" d="M604 347L604 406L65 406L65 347ZM604 134L604 193L65 193L65 134Z" stroke="rgb(0,0,0)" stroke-opacity="1" stroke-width="8" fill="rgb(0,0,0)" fill-opacity="1"></path></g></g><g><g transform="matrix(1,0,0,1,621.8750305175781,264.6125)"><path transform="matrix(0.015300000000000001,0,0,-0.015300000000000001,0,0)" d="M263 689C108 689 29 566 29 324C29 207 50 106 85 57C120 8 176 -20 238 -20C389 -20 465 110 465 366C465 585 400 689 263 689ZM245 654C342 654 381 556 381 316C381 103 343 15 251 15C154 15 113 116 113 360C113 571 150 654 245 654Z" stroke="rgb(0,0,0)" stroke-opacity="1" stroke-width="8" fill="rgb(0,0,0)" fill-opacity="1"></path></g></g></g></g><g><g><g><g transform="matrix(1,0,0,1,23.28125,234.2895935058594)"><path transform="matrix(0.015300000000000001,0,0,-0.015300000000000001,0,0)" d="M352 289C476 289 582 380 582 492C582 599 483 694 345 694L96 694L96 0L185 0L185 289ZM323 638C433 638 501 577 501 492C501 413 438 347 323 347L182 347L182 638ZM794 214C794 314 866 386 964 388L964 455C875 454 820 405 789 359L789 450L719 450L719 0L794 0ZM1391 219C1391 421 1284 461 1213 461C1102 461 1012 355 1012 226C1012 94 1108 -11 1228 -11C1291 -11 1348 13 1387 41L1381 106C1318 54 1252 50 1229 50C1149 50 1085 121 1082 219ZM1087 274C1103 350 1156 400 1213 400C1265 400 1321 366 1334 274ZM2133 298C2133 365 2117 455 1996 455C1936 455 1884 427 1847 373C1821 449 1751 455 1719 455C1647 455 1600 414 1573 378L1573 450L1501 450L1501 0L1579 0L1579 245C1579 313 1606 394 1680 394C1773 394 1778 329 1778 291L1778 0L1856 0L1856 245C1856 313 1883 394 1957 394C2050 394 2055 329 2055 291L2055 0L2133 0ZM2376 680L2287 680L2287 591L2376 591ZM2369 444L2294 444L2294 0L2369 0ZM2885 444L2807 444L2807 154C2807 79 2751 44 2687 44C2616 44 2609 70 2609 113L2609 444L2531 444L2531 109C2531 37 2554 -11 2637 -11C2690 -11 2761 5 2810 48L2810 0L2885 0ZM3678 298C3678 365 3662 455 3541 455C3481 455 3429 427 3392 373C3366 449 3296 455 3264 455C3192 455 3145 414 3118 378L3118 450L3046 450L3046 0L3124 0L3124 245C3124 313 3151 394 3225 394C3318 394 3323 329 3323 291L3323 0L3401 0L3401 245C3401 313 3428 394 3502 394C3595 394 3600 329 3600 291L3600 0L3678 0Z" stroke="rgb(0,0,0)" stroke-opacity="1" stroke-width="8" fill="rgb(0,0,0)" fill-opacity="1"></path></g></g><g><g transform="matrix(1,0,0,1,80.78128051757812,234.2895935058594)"><path transform="matrix(0.015300000000000001,0,0,-0.015300000000000001,0,0)" d="" stroke="rgb(0,0,0)" stroke-opacity="1" stroke-width="8" fill="rgb(0,0,0)" fill-opacity="1"></path></g></g><g><g transform="matrix(1,0,0,1,89.17709350585938,234.2895935058594)"><path transform="matrix(0.015300000000000001,0,0,-0.015300000000000001,0,0)" d="M604 347L604 406L65 406L65 347ZM604 134L604 193L65 193L65 134Z" stroke="rgb(0,0,0)" stroke-opacity="1" stroke-width="8" fill="rgb(0,0,0)" fill-opacity="1"></path></g></g><g><g transform="matrix(1,0,0,1,103.98959350585938,234.2895935058594)"><path transform="matrix(0.015300000000000001,0,0,-0.015300000000000001,0,0)" d="M425 -11C481 -11 596 62 639 125C680 186 714 296 714 371C714 438 691 482 655 482C613 482 560 456 508 409C467 374 447 348 411 289L435 408C438 425 440 440 440 452C440 471 432 482 418 482C397 482 359 461 285 408L257 388L264 368L296 389C324 407 335 412 344 412C354 412 361 403 361 389C361 381 359 361 357 351L299 8C289 -52 270 -143 250 -233L242 -270L249 -276C270 -269 290 -264 322 -259L364 3C385 -4 407 -11 425 -11ZM392 165C414 293 521 424 604 424C630 424 642 402 642 356C642 275 602 156 549 80C529 51 497 36 456 36C425 36 400 43 374 59Z" stroke="rgb(0,0,0)" stroke-opacity="1" stroke-width="8" fill="rgb(0,0,0)" fill-opacity="1"></path></g></g></g></g><g><g><g><g transform="matrix(1,0,0,1,387.5208435058594,71.36459350585938)"><path transform="matrix(0.015,0,0,-0.015,0,0)" d="M27 34C102 -7 163 -11 197 -11C331 -11 360 72 360 127C360 192 314 234 273 252C211 280 104 267 104 340C104 365 119 401 188 401C260 401 292 383 332 364L343 430C288 453 253 461 197 461C61 461 33 382 33 329C33 259 93 220 137 206C168 196 211 191 233 184C253 178 289 158 289 120C289 93 271 52 196 52C115 52 67 86 39 102ZM401 386L485 386L485 117C485 7 534 -11 567 -11C612 -11 663 -1 715 27L699 86C685 76 654 53 611 53C559 53 557 112 557 140L557 386L698 386L698 445L557 445L557 571L487 571L487 445L401 445ZM825 0L900 0L900 206C900 352 1011 386 1070 388L1070 455C964 453 911 385 895 360L895 450L825 450ZM1130 113C1130 67 1160 -11 1244 -11C1354 -11 1409 34 1410 35L1410 0L1486 0L1486 305C1481 389 1415 461 1320 461C1257 461 1211 445 1163 417L1169 350C1202 373 1244 401 1319 401C1332 401 1358 400 1382 371C1407 341 1407 307 1408 279L1408 245C1305 244 1130 219 1130 113ZM1203 114C1203 177 1336 192 1408 193L1408 130C1408 65 1339 51 1296 51C1242 51 1203 78 1203 114ZM1584 386L1668 386L1668 117C1668 7 1717 -11 1750 -11C1795 -11 1846 -1 1898 27L1882 86C1868 76 1837 53 1794 53C1742 53 1740 112 1740 140L1740 386L1881 386L1881 445L1740 445L1740 571L1670 571L1670 445L1584 445ZM1961 226C1961 102 2048 -11 2179 -11C2242 -11 2294 11 2337 40L2331 106C2287 74 2242 51 2179 51C2103 51 2035 117 2031 220L2341 220L2341 249C2332 420 2234 461 2163 461C2057 461 1961 360 1961 226ZM2036 275C2047 324 2087 399 2163 399C2192 399 2267 386 2284 275ZM2398 -71C2398 -148 2497 -206 2620 -206C2742 -206 2842 -148 2842 -70C2842 -58 2840 -45 2837 -33C2809 67 2687 69 2621 69L2546 69C2498 69 2490 103 2490 122C2490 129 2491 139 2501 159C2523 145 2548 129 2592 129C2685 129 2752 207 2752 292C2752 335 2739 364 2713 399L2722 391C2740 392 2771 395 2797 395C2817 395 2836 394 2856 392L2845 455C2791 455 2738 445 2688 424L2690 422C2657 445 2629 455 2592 455C2510 455 2433 389 2433 292C2433 272 2436 232 2466 193L2466 192C2448 168 2437 141 2437 108C2437 76 2446 55 2462 32C2423 9 2398 -30 2398 -71ZM2468 -71C2468 -42 2490 -8 2531 -4L2560 -3L2623 -3C2731 -3 2772 -31 2772 -72C2772 -118 2700 -149 2619 -149C2564 -149 2468 -127 2468 -71ZM2503 292C2503 377 2556 398 2592 398C2646 398 2682 358 2682 293C2682 208 2629 187 2593 187C2539 187 2503 227 2503 292ZM2885 445L3072 18C3076 10 3077 6 3077 1C3077 -3 3076 -8 3073 -15C3030 -119 3022 -149 2980 -149C2963 -149 2941 -143 2907 -132L2912 -197C2936 -203 2966 -205 2985 -205C3031 -205 3060 -182 3100 -90L3317 445L3242 445C3176 281 3111 118 3109 50C3100 107 3100 134 2964 445ZM3721 150C3721 138 3727 119 3760 119L4345 119C4380 119 4386 138 4386 150C4386 160 4382 180 4348 180L3767 180C3764 180 3760 181 3757 181C3725 181 3721 159 3721 150ZM3721 350C3721 343 3724 320 3758 320L4349 320C4382 320 4386 342 4386 350C4386 360 4381 381 4346 381L3761 381C3727 381 3721 363 3721 350ZM4857 0L4932 0L4932 722L4857 722ZM5045 221C5045 85 5150 -11 5264 -11C5378 -11 5484 84 5484 220C5484 345 5392 461 5264 461C5146 461 5045 357 5045 221ZM5123 231C5123 352 5200 399 5264 399C5328 399 5405 353 5405 231C5405 106 5331 53 5264 53C5198 53 5123 105 5123 231ZM5595 0L5673 0L5673 240C5673 314 5698 394 5775 394C5873 394 5873 319 5873 281L5873 0L5951 0L5951 288C5951 358 5942 455 5814 455C5726 455 5682 398 5668 380L5668 450L5595 450ZM6059 -71C6059 -148 6158 -206 6281 -206C6403 -206 6503 -148 6503 -70C6503 -58 6501 -45 6498 -33C6470 67 6348 69 6282 69L6207 69C6159 69 6151 103 6151 122C6151 129 6152 139 6162 159C6184 145 6209 129 6253 129C6346 129 6413 207 6413 292C6413 335 6400 364 6374 399L6383 391C6401 392 6432 395 6458 395C6478 395 6497 394 6517 392L6506 455C6452 455 6399 445 6349 424L6351 422C6318 445 6290 455 6253 455C6171 455 6094 389 6094 292C6094 272 6097 232 6127 193L6127 192C6109 168 6098 141 6098 108C6098 76 6107 55 6123 32C6084 9 6059 -30 6059 -71ZM6129 -71C6129 -42 6151 -8 6192 -4L6221 -3L6284 -3C6392 -3 6433 -31 6433 -72C6433 -118 6361 -149 6280 -149C6225 -149 6129 -127 6129 -71ZM6164 292C6164 377 6217 398 6253 398C6307 398 6343 358 6343 293C6343 208 6290 187 6254 187C6200 187 6164 227 6164 292ZM6900 223C6900 95 6994 -11 7117 -11C7186 -11 7235 11 7280 40L7275 107C7243 85 7196 53 7118 53C7034 53 6978 126 6978 223C6978 310 7022 397 7119 397C7198 397 7224 376 7263 351L7275 417C7214 452 7182 461 7120 461C6980 461 6900 339 6900 223ZM7353 113C7353 67 7383 -11 7467 -11C7577 -11 7632 34 7633 35L7633 0L7709 0L7709 305C7704 389 7638 461 7543 461C7480 461 7434 445 7386 417L7392 350C7425 373 7467 401 7542 401C7555 401 7581 400 7605 371C7630 341 7630 307 7631 279L7631 245C7528 244 7353 219 7353 113ZM7426 114C7426 177 7559 192 7631 193L7631 130C7631 65 7562 51 7519 51C7465 51 7426 78 7426 114ZM7870 0L7945 0L7945 722L7870 722ZM8109 0L8184 0L8184 722L8109 722Z" stroke="rgb(0,0,0)" stroke-opacity="1" stroke-width="8" fill="rgb(0,0,0)" fill-opacity="1"></path></g></g></g></g></svg>
</svg>
